<?xml version="1.0" standalone="no"?>
<!DOCTYPE svg PUBLIC "-//W3C//DTD SVG 20010904//EN"
 "http://www.w3.org/TR/2001/REC-SVG-20010904/DTD/svg10.dtd">
<svg version="1.0" xmlns="http://www.w3.org/2000/svg"
 width="179.000000pt" height="179.000000pt" viewBox="0 0 179.000000 179.000000"
 preserveAspectRatio="xMidYMid meet">
<metadata>
Created by potrace 1.14, written by Peter Selinger 2001-2017
</metadata>
<g transform="translate(0.000000,179.000000) scale(0.100000,-0.100000)"
fill="#000000" stroke="none">
<path d="M836 1749 c-21 -5 -52 -16 -70 -24 -17 -7 -49 -19 -72 -24 -58 -15
-145 -80 -157 -116 -6 -16 -13 -32 -17 -35 -12 -9 -30 -72 -30 -106 0 -18 -4
-35 -9 -38 -5 -3 -15 -35 -22 -71 -7 -36 -16 -65 -21 -65 -4 0 -8 -56 -8 -123
0 -138 11 -177 60 -202 22 -11 30 -24 35 -57 4 -24 17 -70 30 -103 40 -106 39
-120 -19 -205 -29 -41 -63 -80 -76 -86 -25 -12 -335 -111 -417 -133 l-43 -12
0 -174 0 -175 895 0 895 0 0 73 0 72 -241 120 c-203 101 -247 126 -274 160
-55 70 -75 103 -89 149 -13 42 -12 47 16 103 17 32 36 65 44 74 8 9 14 23 12
30 -2 8 7 15 20 17 13 2 22 10 22 22 0 10 5 20 12 22 10 4 21 51 34 163 4 28
10 55 14 60 13 17 27 95 37 206 4 44 0 65 -16 97 -12 23 -21 48 -21 55 0 25
-83 179 -99 185 -9 3 -27 16 -41 29 -14 13 -30 23 -37 23 -7 0 -16 7 -20 15
-5 8 -29 21 -53 29 -25 8 -70 24 -100 35 -59 22 -111 25 -174 10z"/>
</g>
</svg>
