<?xml version="1.0" encoding="UTF-8" standalone="no"?>
<!DOCTYPE svg PUBLIC "-//W3C//DTD SVG 1.1//EN"
 "http://www.w3.org/Graphics/SVG/1.1/DTD/svg11.dtd">
<!-- Generated by graphviz version 7.1.0 (20230121.1956)
 -->
<!-- Pages: 1 -->
<svg width="480pt" height="400pt"
 viewBox="0.00 0.00 326.34 262.43" xmlns="http://www.w3.org/2000/svg" xmlns:xlink="http://www.w3.org/1999/xlink">
<g id="graph0" class="graph" transform="scale(1 1) rotate(0) translate(4 258.43)">
<polygon fill="white" stroke="none" points="-4,4 -4,-258.43 322.34,-258.43 322.34,4 -4,4"/>
<!-- service1 -->
<g id="node1" class="node">
<title>service1</title>
<ellipse fill="#ffd39b" stroke="black" cx="48.08" cy="-23.33" rx="48.17" ry="23.17"/>
<text text-anchor="start" x="22.08" y="-24.83" font-family="Times,serif" font-size="15.00">service1</text>
<text text-anchor="start" x="24.08" y="-13.83" font-family="Times,serif" font-size="10.00">internal&#45;net</text>
</g>
<!-- service2 -->
<g id="node2" class="node">
<title>service2</title>
<ellipse fill="aquamarine" stroke="black" cx="152.08" cy="-106" rx="48.17" ry="23.17"/>
<text text-anchor="start" x="126.08" y="-107.5" font-family="Times,serif" font-size="15.00">service2</text>
<text text-anchor="start" x="128.08" y="-96.5" font-family="Times,serif" font-size="10.00">internal&#45;net</text>
</g>
<!-- service2&#45;&gt;service1 -->
<g id="edge1" class="edge">
<title>service2&#45;&gt;service1</title>
<path fill="none" stroke="black" d="M127.17,-85.68C113.54,-75.1 96.45,-61.85 81.66,-50.38"/>
<polygon fill="black" stroke="black" points="84.03,-47.79 73.99,-44.43 79.74,-53.32 84.03,-47.79"/>
</g>
<!-- postgres -->
<g id="node3" class="node">
<title>postgres</title>
<ellipse fill="#ffd39b" stroke="black" cx="162.08" cy="-23.33" rx="48.17" ry="23.17"/>
<text text-anchor="start" x="136.08" y="-24.83" font-family="Times,serif" font-size="15.00">postgres</text>
<text text-anchor="start" x="138.08" y="-13.83" font-family="Times,serif" font-size="10.00">internal&#45;net</text>
</g>
<!-- service2&#45;&gt;postgres -->
<g id="edge3" class="edge">
<title>service2&#45;&gt;postgres</title>
<path fill="none" stroke="black" d="M154.87,-82.53C155.81,-74.93 156.89,-66.26 157.91,-57.98"/>
<polygon fill="black" stroke="black" points="161.37,-58.54 159.13,-48.19 154.42,-57.68 161.37,-58.54"/>
</g>
<!-- mongo -->
<g id="node4" class="node">
<title>mongo</title>
<ellipse fill="#ffd39b" stroke="black" cx="273.08" cy="-23.33" rx="45.01" ry="23.17"/>
<text text-anchor="start" x="251.58" y="-24.83" font-family="Times,serif" font-size="15.00">mongo</text>
<text text-anchor="start" x="249.08" y="-13.83" font-family="Times,serif" font-size="10.00">internal&#45;net</text>
</g>
<!-- service2&#45;&gt;mongo -->
<g id="edge2" class="edge">
<title>service2&#45;&gt;mongo</title>
<path fill="none" stroke="black" d="M179.54,-86.7C196.44,-75.43 218.31,-60.85 236.65,-48.62"/>
<polygon fill="black" stroke="black" points="238.51,-51.59 244.89,-43.13 234.63,-45.76 238.51,-51.59"/>
</g>
<!-- gateway -->
<g id="node5" class="node">
<title>gateway</title>
<ellipse fill="#8470ff" stroke="black" cx="105.08" cy="-209.89" rx="57.97" ry="44.6"/>
<text text-anchor="start" x="79.58" y="-226.39" font-family="Times,serif" font-size="15.00">gateway</text>
<text text-anchor="start" x="81.08" y="-215.39" font-family="Times,serif" font-size="10.00">internal&#45;net</text>
<text text-anchor="start" x="83.58" y="-205.39" font-family="Times,serif" font-size="10.00">public&#45;net</text>
<text text-anchor="start" x="72.08" y="-195.39" font-family="Times,serif" font-size="10.00">127.0.0.1:80:80</text>
<text text-anchor="start" x="87.58" y="-185.39" font-family="Times,serif" font-size="10.00">443:443</text>
</g>
<!-- gateway&#45;&gt;service1 -->
<g id="edge4" class="edge">
<title>gateway&#45;&gt;service1</title>
<path fill="none" stroke="black" d="M91.86,-166.08C81.66,-133.04 67.74,-87.97 58.36,-57.6"/>
<polygon fill="black" stroke="black" points="61.74,-56.7 55.45,-48.18 55.05,-58.77 61.74,-56.7"/>
</g>
<!-- gateway&#45;&gt;service2 -->
<g id="edge5" class="edge">
<title>gateway&#45;&gt;service2</title>
<path fill="none" stroke="black" d="M124.2,-167.45C128.5,-158.12 133,-148.36 137.11,-139.47"/>
<polygon fill="black" stroke="black" points="140.23,-141.06 141.24,-130.52 133.87,-138.13 140.23,-141.06"/>
</g>
</g>
</svg>
